<?xml version="1.0" encoding="UTF-8" standalone="no"?>
<svg
   xmlns:dc="http://purl.org/dc/elements/1.1/"
   xmlns:cc="http://creativecommons.org/ns#"
   xmlns:rdf="http://www.w3.org/1999/02/22-rdf-syntax-ns#"
   xmlns:svg="http://www.w3.org/2000/svg"
   xmlns="http://www.w3.org/2000/svg"
   id="svg8"
   version="1.1"
   viewBox="0 0 12.7 12.7"
   height="48"
   width="48">
  <defs
     id="defs2" />
  <metadata
     id="metadata5">
    <rdf:RDF>
      <cc:Work
         rdf:about="">
        <dc:format>image/svg+xml</dc:format>
        <dc:type
           rdf:resource="http://purl.org/dc/dcmitype/StillImage" />
        <dc:title></dc:title>
      </cc:Work>
    </rdf:RDF>
  </metadata>
  <g
     transform="translate(0,-284.29998)"
     id="layer1">
    <path
       id="path862"
       d="m 2.9849566,287.2953 c -0.6480365,0 -1.1733684,0.27955 -1.1733544,0.62437 4e-6,0.34482 0.5253304,0.62434 1.1733544,0.62435 0.067648,-3e-5 0.1351615,-0.003 0.2017931,-0.01 l 0.729909,0.54211 c -0.2475525,0.21973 -0.3896218,0.47588 -0.3896249,0.74946 -4e-6,0.28328 0.1523765,0.54792 0.4164101,0.77276 L 2.714056,291.2033 c -0.2769975,-0.0876 -0.5931347,-0.13403 -0.9153759,-0.13441 -0.99363139,0 -1.79913294787,0.4286 -1.79914474787,0.95733 -7.86e-6,0.52874 0.80549762787,0.95735 1.79914474787,0.95735 0.9936486,0 1.7991549,-0.42861 1.7991462,-0.95735 -1.43e-4,-0.1487 -0.065495,-0.29534 -0.1907148,-0.42828 l 1.2215919,-0.6008 c 0.476339,0.19211 1.0730389,0.30643 1.7208224,0.30643 0.5992307,0 1.1547244,-0.0978 1.6117113,-0.26456 l 1.2737576,0.62645 c -0.087971,0.11453 -0.1333946,0.23705 -0.1337521,0.36076 -7.9e-6,0.52874 0.8054994,0.95735 1.7991454,0.95735 0.993648,0 1.799155,-0.42861 1.799147,-0.95735 -10e-6,-0.52873 -0.805514,-0.95733 -1.799147,-0.95733 -0.368583,4.2e-4 -0.728037,0.0611 -1.0297376,0.17372 l -1.1885485,-0.58456 c 0.3091012,-0.23701 0.4899577,-0.52348 0.4899529,-0.83213 -2.3e-6,-0.27357 -0.1420725,-0.52973 -0.389625,-0.74946 l 0.7445043,-0.48711 c 0.06636,0.006 0.133628,0.01 0.2010543,0.01 0.6480296,0 1.1733686,-0.27953 1.1733736,-0.62435 9e-6,-0.34482 -0.52533,-0.62438 -1.1733736,-0.62437 -0.6480354,0 -1.1733682,0.27955 -1.1733541,0.62437 5.707e-4,0.1519 0.1051426,0.2985 0.2942118,0.41231 L 8.28248,288.74943 c -0.1833376,-0.0902 -0.3897044,-0.16779 -0.6140117,-0.22997 -0.3655672,-0.31865 -0.8339743,-0.49445 -1.3189237,-0.49502 -0.4844354,7.9e-4 -0.9523039,0.17643 -1.3175756,0.49463 -0.2248277,0.0623 -0.4316566,0.13994 -0.6153598,0.23035 l -0.5522256,-0.41688 c 0.1890369,-0.11389 0.2935398,-0.26055 0.2939273,-0.41249 0,-0.34483 -0.5253194,-0.62436 -1.1733543,-0.62436 z m 1.7328636,1.57109 c -0.1713336,0.23798 -0.2885497,0.51053 -0.3434366,0.79857 0.18861,0.46475 0.9202466,0.77866 1.9335233,0.77866 0.956315,2e-5 1.7570032,-0.28417 2.028311,-0.70802 -0.048015,-0.31359 -0.1695439,-0.61138 -0.3546649,-0.86903 0.3173735,0.1955 0.508975,0.44871 0.5089788,0.72538 1.02e-5,0.61904 -0.9377533,1.00987 -2.1201973,1.00986 -1.1824339,0 -2.1617874,-0.39083 -2.1617786,-1.00986 5.4e-6,-0.27675 0.1917177,-0.53003 0.5092643,-0.72556 z m -0.061062,2.25429 c 0.3697399,0.57677 1.0076884,0.92561 1.6927867,0.92564 0.6823954,-8e-4 1.3178194,-0.34763 1.6876253,-0.92115 -0.529566,0.18681 -1.1315326,0.30357 -1.7084543,0.30357 -0.5860814,-1e-5 -1.1706168,-0.11849 -1.6719577,-0.30806 z"
       style="opacity:1;fill:#1a1a1a;fill-opacity:1;stroke:none;stroke-width:0.02756866;stroke-linecap:square;stroke-linejoin:miter;stroke-miterlimit:4;stroke-dasharray:none;stroke-opacity:1" />
  </g>
</svg>
