<?xml version="1.0" encoding="UTF-8" standalone="no"?>
<svg
   xmlns:dc="http://purl.org/dc/elements/1.1/"
   xmlns:cc="http://creativecommons.org/ns#"
   xmlns:rdf="http://www.w3.org/1999/02/22-rdf-syntax-ns#"
   xmlns:svg="http://www.w3.org/2000/svg"
   xmlns="http://www.w3.org/2000/svg"
   id="svg2049"
   version="1.1"
   viewBox="0 0 12.7 12.7"
   height="48"
   width="48">
  <defs
     id="defs2043" />
  <metadata
     id="metadata2046">
    <rdf:RDF>
      <cc:Work
         rdf:about="">
        <dc:format>image/svg+xml</dc:format>
        <dc:type
           rdf:resource="http://purl.org/dc/dcmitype/StillImage" />
        <dc:title></dc:title>
      </cc:Work>
    </rdf:RDF>
  </metadata>
  <g
     transform="translate(17.848017,-282.68433)"
     id="layer1">
    <path
       id="circle2735"
       d="m -14.213269,285.39958 c -2.004789,3e-5 -3.634711,1.62995 -3.634748,3.63474 3.7e-5,2.00479 1.629959,3.63472 3.634748,3.63475 h 4.37e-4 c 1.048829,-0.002 2.027789,-0.47159 2.713723,-1.25423 0.686359,0.78314 1.6659738,1.2531 2.7154709,1.25423 h 4.367e-4 c 2.0049698,2.2e-4 3.6351477,-1.62977 3.6351846,-3.63475 -3.69e-5,-2.00497 -1.6302148,-3.63497 -3.6351846,-3.63474 h -4.367e-4 c -1.0486785,0.002 -2.0274579,0.47169 -2.7132869,1.25423 -0.686464,-0.78326 -1.666696,-1.25324 -2.716344,-1.25423 z m 0,0.44195 c 0.997818,8.4e-4 1.937209,0.46807 2.540349,1.26297 l 0.175995,0.23189 0.175995,-0.23189 c 0.602529,-0.7941 1.5409371,-1.26113 2.5377286,-1.26297 1.7660913,-2e-4 3.1932005,1.4267 3.1932327,3.19279 -3.22e-5,1.76595 -1.42691,3.19276 -3.1927958,3.1928 -0.9976747,-8.5e-4 -1.9372965,-0.46818 -2.5403495,-1.26297 l -0.175995,-0.23189 -0.175994,0.23189 c -0.602617,0.79421 -1.54123,1.26126 -2.538166,1.26297 -1.765931,-3e-5 -3.192764,-1.42687 -3.192796,-3.1928 3.2e-5,-1.76593 1.426865,-3.19276 3.192796,-3.19279 z m 0,1.35599 a 1.8366829,1.8366829 0 0 0 -1.836808,1.8368 1.8366829,1.8366829 0 0 0 1.836808,1.83681 1.8366829,1.8366829 0 0 0 1.836807,-1.83681 1.8366829,1.8366829 0 0 0 -1.836807,-1.8368 z m 5.4300676,0 a 1.8366829,1.8366829 0 0 0 -1.8363706,1.8368 1.8366829,1.8366829 0 0 0 1.8363706,1.83681 1.8366829,1.8366829 0 0 0 1.8368076,-1.83681 1.8366829,1.8366829 0 0 0 -1.8368076,-1.8368 z"
       style="opacity:1;fill:#000000;fill-opacity:1;stroke:none;stroke-width:0.60134357;stroke-linecap:square;stroke-linejoin:miter;stroke-miterlimit:4;stroke-dasharray:none;stroke-opacity:1" />
  </g>
</svg>
