<?xml version="1.0" encoding="UTF-8" standalone="no"?>
<svg
   xmlns:dc="http://purl.org/dc/elements/1.1/"
   xmlns:cc="http://creativecommons.org/ns#"
   xmlns:rdf="http://www.w3.org/1999/02/22-rdf-syntax-ns#"
   xmlns:svg="http://www.w3.org/2000/svg"
   xmlns="http://www.w3.org/2000/svg"
   id="svg8"
   version="1.1"
   viewBox="0 0 12.699877 12.698712"
   height="47.995132"
   width="47.999535">
  <defs
     id="defs2" />
  <metadata
     id="metadata5">
    <rdf:RDF>
      <cc:Work
         rdf:about="">
        <dc:format>image/svg+xml</dc:format>
        <dc:type
           rdf:resource="http://purl.org/dc/dcmitype/StillImage" />
        <dc:title></dc:title>
      </cc:Work>
    </rdf:RDF>
  </metadata>
  <g
     transform="translate(-149.58986,-185.9057)"
     id="layer1">
    <path
       id="rect949"
       d="m 240.41351,164.20657 c -0.56369,-0.30333 -1.27028,-0.25686 -1.89701,-0.29437 -2.36273,0.0347 -4.67774,1.11438 -6.25795,2.84948 -1.54382,-0.59064 -3.44256,0.25543 -4.01527,1.79793 -0.17421,0.50635 -0.33976,1.10619 -0.14433,1.62457 0.25861,0.34805 0.73222,0.11946 1.09152,0.13711 0.45158,-0.0367 0.90318,-0.0734 1.35477,-0.11016 0.0209,0.40687 -0.17931,1.04825 0.29124,1.26787 0.59527,0.0849 1.1805,0.26149 1.70338,0.56291 0.35963,0.54491 0.50845,1.18484 0.64922,1.80584 0.27388,0.41602 0.94836,0.15035 1.27198,0.2689 -0.0462,0.71327 -0.14361,1.42737 -0.15728,2.14013 0.13009,0.48471 0.75479,0.34334 1.12498,0.31245 1.63435,-0.20562 2.89636,-1.83081 2.68204,-3.4505 -0.0658,-0.73142 0,0 -0.0658,-0.73142 0.4946,-0.58271 0,0 0.4946,-0.58271 1.7785,-1.99119 2.57286,-4.85501 1.9734,-7.45733 -0.0233,-0.0529 -0.0573,-0.10105 -0.0996,-0.14069 z m -0.67699,0.68065 c 0.48082,2.99734 -0.94602,6.30335 -3.66377,7.79047 -0.65113,0.3556 -1.39276,0.56974 -2.14004,0.53965 -0.15672,-0.65266 -0.38429,-1.33287 -0.82272,-1.85083 -0.47201,-0.41877 -1.39354,-0.41701 -1.70225,-0.81305 0.0557,-1.74288 1.27706,-3.19525 2.60914,-4.21291 1.62201,-1.17048 3.71944,-1.80962 5.71964,-1.45333 z m -1.895,1.97185 c -0.72867,-0.78838 -2.19969,-0.3132 -2.35202,0.73623 -0.24268,0.97861 0.83842,1.91589 1.7839,1.55192 0.95883,-0.28023 1.30447,-1.60002 0.56812,-2.28815 z m -0.63545,6.12929 c 0.30884,1.26693 -0.69181,2.63423 -2.00267,2.73321 0.0499,-0.60391 0.0998,-1.20782 0.14972,-1.81175 0.66802,-0.19115 1.29039,-0.51936 1.85295,-0.92146 z m -5.54723,-5.49998 c -0.49834,0.51345 -0.66063,1.39955 -1.06511,1.85083 -0.5618,0.0457 -1.1236,0.0913 -1.6854,0.13704 0.11433,-1.31184 1.45596,-2.28169 2.75051,-1.98787 z m 0.38058,5.13058 c -0.5696,-0.62953 -1.5948,-0.66514 -2.23734,-0.12575 -0.99346,0.67117 -1.07489,1.97221 -1.16279,3.05307 -0.009,0.24963 -0.10083,0.58112 0.27109,0.45179 1.0104,-0.0713 2.15399,-0.11004 2.94782,-0.81497 0.62293,-0.54852 0.95615,-1.53375 0.43175,-2.25815 -0.0722,-0.11048 -0.1567,-0.21293 -0.25053,-0.30599 z m -0.61672,0.61184 c 0.61965,0.53315 -0.0289,1.449 -0.67257,1.5966 -0.45115,0.12981 -1.49162,0.56741 -1.12021,-0.28613 0.11048,-0.66304 0.42273,-1.43444 1.1721,-1.56535 0.24119,-0.0461 0.46181,0.0893 0.62067,0.25488 z"
       style="color:#000000;font-style:normal;font-variant:normal;font-weight:normal;font-stretch:normal;font-size:medium;line-height:normal;font-family:sans-serif;font-variant-ligatures:normal;font-variant-position:normal;font-variant-caps:normal;font-variant-numeric:normal;font-variant-alternates:normal;font-feature-settings:normal;text-indent:0;text-align:start;text-decoration:none;text-decoration-line:none;text-decoration-style:solid;text-decoration-color:#000000;letter-spacing:normal;word-spacing:normal;text-transform:none;writing-mode:lr-tb;direction:ltr;text-orientation:mixed;dominant-baseline:auto;baseline-shift:baseline;text-anchor:start;white-space:normal;shape-padding:0;clip-rule:nonzero;display:inline;overflow:visible;visibility:visible;opacity:0.25100002;isolation:auto;mix-blend-mode:normal;color-interpolation:sRGB;color-interpolation-filters:linearRGB;solid-color:#000000;solid-opacity:1;vector-effect:none;fill:#000000;fill-opacity:1;fill-rule:nonzero;stroke:none;stroke-width:0.86848801;stroke-linecap:round;stroke-linejoin:round;stroke-miterlimit:4;stroke-dasharray:none;stroke-dashoffset:0;stroke-opacity:1;color-rendering:auto;image-rendering:auto;shape-rendering:auto;text-rendering:auto;enable-background:accumulate" />
    <rect
       transform="rotate(-0.00747874)"
       ry="1.0158067"
       y="168.41733"
       x="200.46504"
       height="17.481398"
       width="11.481027"
       id="rect6218-8"
       style="opacity:1;fill:none;fill-opacity:1;stroke:#c83737;stroke-width:0.86799997;stroke-linecap:square;stroke-linejoin:miter;stroke-miterlimit:4;stroke-dasharray:none;stroke-opacity:1" />
    <rect
       transform="rotate(-8.7569088)"
       ry="1.0158067"
       y="196.87775"
       x="169.76247"
       height="17.481398"
       width="11.481027"
       id="rect6218-4"
       style="opacity:1;fill:#ffffff;fill-opacity:1;stroke:#c83737;stroke-width:0.86799997;stroke-linecap:square;stroke-linejoin:miter;stroke-miterlimit:4;stroke-dasharray:none;stroke-opacity:1" />
    <rect
       transform="rotate(-18.27384)"
       ry="1.0158067"
       y="222.08734"
       x="131.86238"
       height="17.481398"
       width="11.481027"
       id="rect6218-49"
       style="opacity:1;fill:#ffffff;fill-opacity:1;stroke:#c83737;stroke-width:0.86799997;stroke-linecap:square;stroke-linejoin:miter;stroke-miterlimit:4;stroke-dasharray:none;stroke-opacity:1" />
    <rect
       transform="rotate(-30.372126)"
       ry="1.0158067"
       y="244.43533"
       x="78.563347"
       height="17.481398"
       width="11.481027"
       id="rect6218-8-0-0"
       style="opacity:1;fill:#ffffff;fill-opacity:1;stroke:#c83737;stroke-width:0.86799997;stroke-linecap:square;stroke-linejoin:miter;stroke-miterlimit:4;stroke-dasharray:none;stroke-opacity:1" />
    <path
       id="rect6218-8-3"
       transform="matrix(0.26458333,0,0,0.26458333,228.01068,163.9122)"
       d="m -60.195312,123.18945 8.660156,56.21485 c 0.323809,2.10213 -1.106811,4.05509 -3.208985,4.3789 l -35.298828,5.4375 c -0.02769,0.004 -0.05444,0.002 -0.08203,0.006 0.131877,0.0136 0.260904,0.0391 0.396484,0.0391 l 35.712891,-0.006 c 2.126967,-2.8e-4 3.840121,-1.71288 3.839844,-3.83985 l -0.0078,-58.39258 c -2.77e-4,-2.12693 -1.712877,-3.83816 -3.839844,-3.83789 z m 1.392578,42.95313 c 0.330459,0.96716 0.254253,2.00631 -0.171875,2.89453 0.426105,-0.88831 0.502345,-1.92733 0.171875,-2.89453 z m -0.556641,3.5293 c -0.149087,0.19935 -0.319886,0.38639 -0.509766,0.55664 0.190706,-0.17087 0.360176,-0.35644 0.509766,-0.55664 z"
       style="opacity:1;fill:none;fill-opacity:1;stroke:#c83737;stroke-width:3.28062987;stroke-linecap:square;stroke-linejoin:miter;stroke-miterlimit:4;stroke-dasharray:none;stroke-opacity:1" />
    <path
       id="rect6218-4-5"
       transform="matrix(0.26458333,0,0,0.26458333,228.01068,163.9122)"
       d="m -64.025391,118.44141 c -0.25522,-0.0123 -0.516525,5.4e-4 -0.779297,0.041 l -7.013671,1.08008 17.652343,53.46289 c 0.666918,2.01967 -0.421705,4.18268 -2.441406,4.84961 l -33.912109,11.19922 c -0.206917,0.0683 -0.415386,0.10867 -0.623047,0.13867 0.357669,0.0481 0.723972,0.0657 1.099609,0.008 l 35.298828,-5.4375 c 2.102174,-0.32381 3.532794,-2.27677 3.208985,-4.3789 l -8.890625,-57.71289 c -0.283333,-1.83937 -1.813066,-3.16416 -3.59961,-3.25 z m 5.222657,47.70117 c 0.330459,0.96716 0.254253,2.00631 -0.171875,2.89453 0.426105,-0.88831 0.502345,-1.92733 0.171875,-2.89453 z m -0.556641,3.5293 c -0.149087,0.19935 -0.319886,0.38639 -0.509766,0.55664 0.190706,-0.17087 0.360176,-0.35644 0.509766,-0.55664 z"
       style="opacity:1;fill:#ffffff;fill-opacity:1;stroke:#c83737;stroke-width:3.28062987;stroke-linecap:square;stroke-linejoin:miter;stroke-miterlimit:4;stroke-dasharray:none;stroke-opacity:1" />
    <path
       id="rect6218-49-8"
       transform="matrix(0.26458333,0,0,0.26458333,228.01068,163.9122)"
       d="m -75.808594,114.95117 c -0.49721,-0.0399 -1.010699,0.0188 -1.515625,0.18555 l -9.451172,3.12109 27.648438,47.17578 c 1.075424,1.83507 0.463958,4.17849 -1.371094,5.25391 L -91.3125,188.74414 c -0.372961,0.21857 -0.767945,0.3505 -1.167969,0.43359 0.632209,0.12734 1.302342,0.11396 1.960938,-0.10351 L -56.607422,177.875 c 2.019701,-0.66693 3.108324,-2.82994 2.441406,-4.84961 l -18.308593,-55.44727 c -0.500197,-1.51477 -1.842353,-2.50734 -3.333985,-2.62695 z"
       style="opacity:1;fill:none;fill-opacity:1;stroke:#c83737;stroke-width:3.28062987;stroke-linecap:square;stroke-linejoin:miter;stroke-miterlimit:4;stroke-dasharray:none;stroke-opacity:1" />
    <path
       id="rect6218-8-0-0-8"
       d="m 67.748488,270.09064 h 9.449413 c 0.562757,0 1.015807,0.45305 1.015807,1.0158 v 15.44979 c 0,0.56276 -0.45305,1.0158 -1.015807,1.0158 h -9.449413 c -0.562757,0 -1.015807,-0.45304 -1.015807,-1.0158 v -15.44979 c 0,-0.56275 0.45305,-1.0158 1.015807,-1.0158 z"
       style="opacity:1;fill:none;fill-opacity:1;stroke:#c83737;stroke-width:0.86799997;stroke-linecap:square;stroke-linejoin:miter;stroke-miterlimit:4;stroke-dasharray:none;stroke-opacity:1"
       transform="rotate(-30.372126)" />
    <path
       d="m 150.08943,189.13934 4.99092,-2.88918 c 0.29156,-0.17206 0.66383,-0.0742 0.83469,0.21938 l 4.69087,8.06053 c 0.17087,0.2936 0.0737,0.66849 -0.21785,0.84054 l -4.89561,2.88919 c -0.29156,0.17206 -0.66383,0.0742 -0.83469,-0.21938 l -4.69086,-8.06052 c -0.17086,-0.29361 -0.16903,-0.6685 0.12253,-0.84056 z m 7.86617,-2.6864 c -0.079,-0.006 -0.16059,0.003 -0.2408,0.0297 l -1.50163,0.49937 4.39284,7.548 c 0.17085,0.29361 0.0737,0.66855 -0.21785,0.84062 l -4.89585,2.88933 c -0.0135,0.008 -0.028,0.0125 -0.0419,0.0193 -0.0171,0.008 -0.0339,0.0175 -0.0515,0.0238 -0.0303,0.0109 -0.0611,0.0194 -0.0922,0.026 0.10049,0.0204 0.20692,0.0183 0.31155,-0.0166 l 5.38802,-1.79185 c 0.32088,-0.10671 0.49386,-0.45279 0.38789,-0.77593 l -2.90891,-8.87142 c -0.0794,-0.24236 -0.29269,-0.40118 -0.5297,-0.42031 z m 1.87213,0.55842 c -0.0405,-0.002 -0.0821,1.2e-4 -0.12382,0.007 l -1.11434,0.17282 2.80464,8.55392 c 0.10596,0.32315 -0.067,0.66923 -0.3879,0.77593 l -5.38802,1.79185 c -0.0327,0.0109 -0.0656,0.0174 -0.0984,0.0222 0.0566,0.008 0.11462,0.0105 0.17409,0.001 l 5.60834,-0.86999 c 0.33399,-0.0519 0.56129,-0.36427 0.50985,-0.70061 l -1.41256,-9.23392 c -0.0451,-0.2943 -0.28807,-0.50626 -0.57191,-0.52 z m 0.60853,0.75968 1.37594,8.99424 c 0.0514,0.33634 -0.17585,0.6488 -0.50985,0.70061 l -5.70366,0.86999 c -0.004,5.2e-4 -0.008,2.6e-4 -0.013,0.001 0.0209,0.002 0.0414,0.006 0.063,0.006 l 5.76944,-0.001 c 0.33794,-4e-5 0.61012,-0.27406 0.61008,-0.61437 l -0.001,-9.34266 c -4e-5,-0.34031 -0.27214,-0.6141 -0.61007,-0.61406 z"
       style="opacity:1;fill:none;fill-opacity:1;stroke:#000000;stroke-width:0.52305907;stroke-linecap:square;stroke-linejoin:miter;stroke-miterlimit:4;stroke-dasharray:none;stroke-opacity:1"
       id="rect6218-8-0-0-8-4" />
  </g>
</svg>
