<?xml version="1.0" encoding="UTF-8" standalone="no"?>
<svg
   xmlns:dc="http://purl.org/dc/elements/1.1/"
   xmlns:cc="http://creativecommons.org/ns#"
   xmlns:rdf="http://www.w3.org/1999/02/22-rdf-syntax-ns#"
   xmlns:svg="http://www.w3.org/2000/svg"
   xmlns="http://www.w3.org/2000/svg"
   id="svg848"
   version="1.1"
   viewBox="0 0 12.675712 12.716536"
   height="48.0625"
   width="47.908203">
  <defs
     id="defs842" />
  <metadata
     id="metadata845">
    <rdf:RDF>
      <cc:Work
         rdf:about="">
        <dc:format>image/svg+xml</dc:format>
        <dc:type
           rdf:resource="http://purl.org/dc/dcmitype/StillImage" />
        <dc:title></dc:title>
      </cc:Work>
    </rdf:RDF>
  </metadata>
  <g
     transform="translate(-0.03513997,-284.40178)"
     id="layer1">
    <path
       id="path1396"
       transform="matrix(0.26458333,0,0,0.26458333,0,284.29998)"
       d="m 15.4375,0.38476562 c -4.052058,0 -7.7300401,0.76519378 -10.4960938,2.08398438 -2.7660537,1.3187906 -4.8085937,3.2932448 -4.8085937,5.8203125 0,0.1991811 0.0339437,0.3898423 0.0585938,0.5820313 h -0.015625 v 7.1152342 c 0.009298,0.07181 0.0122623,0.144986 0.0214844,0.216797 H 0.1835938 v 7.115234 c 0.002072,0.0189 0.009338,0.04096 0.0117188,0.0625 H 0.169922 c 0.009298,0.07181 0.0122623,0.144986 0.0214844,0.216797 H 0.1777345 v 6.898438 h -0.007813 c 0.003422,0.02646 0.00528,0.05287 0.007813,0.08008 v 0.136719 7.115234 c 0.22124219,2.317644 2.1616724,4.147097 4.765625,5.388672 2.7660543,1.31879 6.4420675,2.083984 10.4941405,2.083984 2.048501,0 3.992495,-0.204165 5.779297,-0.568359 0.733118,0.67989 1.640865,1.273005 2.669922,1.763672 2.588678,1.234167 6.031991,1.951172 9.824219,1.951172 3.792231,0 7.23163,-0.717005 9.820312,-1.951172 2.436971,-1.161978 4.24694,-2.873898 4.453125,-5.042969 h -0.01172 v -6.597656 c 0.0022,-0.02268 0.0098,-0.04014 0.01172,-0.06055 h -0.01172 v -0.03125 c 0.0064,-0.05745 0.01002,-0.114804 0.01758,-0.171875 h -0.01758 v -6.455078 h -0.002 c 0.0038,-0.03024 0.0071,-0.06156 0.0098,-0.0918 0.0045,-0.03779 0.01613,-0.07278 0.01953,-0.111328 h -0.0098 v -6.658203 h -0.0059 c 0.02268,-0.179528 0.05664,-0.356865 0.05664,-0.542969 0,-2.365002 -1.905463,-4.215052 -4.494141,-5.449219 -2.588678,-1.234242 -6.02809,-1.951172 -9.820313,-1.951172 h -0.002 c -1.046774,0 -2.062154,0.05904 -3.044921,0.164063 V 8.8691406 h -0.002 c 0.02457,-0.192 0.05859,-0.3811616 0.05859,-0.5800781 0,-2.5270299 -2.036679,-4.5015219 -4.802734,-5.8203125 -2.765867,-1.3187906 -6.439938,-2.08398437 -10.492,-2.08398438 z m 0,2.35546878 c 3.748619,0 7.130599,0.7389086 9.476562,1.8574218 2.345968,1.1184756 3.464844,2.4992299 3.464844,3.6914063 0,1.1921764 -1.118876,2.5826585 -3.464844,3.7011715 -2.345963,1.118476 -5.727943,1.857422 -9.476562,1.857422 -3.748622,0 -7.138412,-0.738946 -9.484375,-1.857422 C 3.6071569,10.871721 2.4863281,9.4812389 2.4863281,8.2890625 2.4863281,7.0968861 3.6071569,5.7161318 5.953125,4.5976562 8.299088,3.479143 11.688878,2.7402344 15.4375,2.7402344 Z M 2.5390625,12.625 c 0.69951,0.562583 1.5063902,1.066941 2.4023437,1.494141 2.7660537,1.31879 6.4440358,2.083984 10.4960938,2.083984 4.052062,0 7.728086,-0.765194 10.494141,-2.083984 0.889156,-0.423912 1.690005,-0.923064 2.384765,-1.480469 v 1.216797 c -1.639026,0.333171 -3.132265,0.816611 -4.414062,1.427734 -2.588683,1.234205 -4.501953,3.084217 -4.501953,5.449219 0,0.02542 0.0067,0.04908 0.0078,0.07422 -1.253003,0.185879 -2.580292,0.298828 -3.970703,0.298828 -3.74863,0 -7.1384045,-0.733087 -9.484375,-1.851563 -2.0257296,-0.965858 -3.1289685,-2.13285 -3.3945312,-3.201172 -0.0048,-0.02268 -0.015487,-0.04411 -0.019531,-0.06641 z m 31.1855465,2.910156 c 3.508241,0 6.671657,0.693419 8.867188,1.740235 2.195531,1.04674 3.246094,2.341277 3.246094,3.457031 0,1.115679 -1.050563,2.412206 -3.246094,3.458984 -2.195531,1.04674 -5.358947,1.742188 -8.867188,1.742188 -3.508237,0 -6.679469,-0.695448 -8.875,-1.742188 -2.195529,-1.046778 -3.24414,-2.343305 -3.24414,-3.458984 0,-1.115754 1.048611,-2.410291 3.24414,-3.457031 2.195531,-1.046816 5.366763,-1.740235 8.875,-1.740235 z M 2.5449219,19.957031 c 0.6995096,0.562621 1.5083417,1.066903 2.4042969,1.494141 2.7660535,1.318753 6.4440372,2.085937 10.4960932,2.085937 1.386985,0 2.720473,-0.10076 3.996094,-0.273437 v 4.669922 h -0.02148 c 0.0087,0.06664 0.01319,0.134515 0.02148,0.201172 -0.0045,6.77e-4 -0.0091,0.0013 -0.01367,0.002 -1.256823,0.186959 -2.588935,0.300781 -3.984375,0.300781 -3.74863,0 -7.1364559,-0.731134 -9.4824215,-1.849609 -2.0680494,-0.986004 -3.1828429,-2.18322 -3.4179687,-3.269532 h 0.00195 z m 19.1093751,4.832031 c 0.654651,0.526526 1.409544,0.996686 2.248047,1.396485 2.588675,1.234205 6.030048,1.951172 9.822265,1.951172 3.79222,0 7.233592,-0.716967 9.822266,-1.951172 0.832146,-0.396775 1.582215,-0.863115 2.232422,-1.384766 v 3.132813 c -0.02003,0.109606 -0.05467,0.220157 -0.09375,0.332031 -0.355125,0.923868 -1.366816,1.90323 -3.09375,2.726563 -2.195531,1.046777 -5.358939,1.732421 -8.867188,1.732421 -3.508247,0 -6.679472,-0.685644 -8.875,-1.732421 -1.935434,-0.922772 -2.977216,-2.041939 -3.197265,-3.058594 h 0.002 z m -19.1152345,2.5625 c 0.69951,0.562621 1.5083417,1.066903 2.4042969,1.494141 2.7660532,1.318753 6.4420826,2.085938 10.4941406,2.085938 1.384248,0 2.71636,-0.101225 3.990234,-0.273438 v 3.933594 h -0.0078 c 0.0027,0.0189 0.0058,0.04209 0.0078,0.0625 v 0.140625 0.591797 c -1.258575,0.188767 -2.59263,0.302734 -3.990234,0.302734 -3.748619,0 -7.1364566,-0.738984 -9.4824219,-1.857422 C 3.8570345,32.831704 2.7516485,31.616173 2.5390625,30.517578 Z m 19.0996095,4.298829 c 0.654651,0.526526 1.409544,0.998639 2.248047,1.398437 2.588679,1.234205 6.032001,1.949219 9.824219,1.949219 3.792222,0 7.231634,-0.715014 9.820312,-1.949219 0.832142,-0.396775 1.582218,-0.865106 2.232422,-1.386719 v 2.982422 c -0.21309,1.020057 -1.24146,2.141468 -3.185547,3.06836 -2.195531,1.046778 -5.358947,1.740234 -8.867187,1.740234 -3.508235,0 -6.679467,-0.693456 -8.875,-1.740234 -1.962414,-0.93566 -2.997494,-2.069965 -3.197266,-3.097657 z M 2.5390625,34.609375 c 0.6960756,0.562847 1.5077366,1.064724 2.4042969,1.492187 2.7660569,1.318791 6.4420716,2.083985 10.4941406,2.083985 1.384252,0 2.716361,-0.09983 3.990234,-0.271485 v 3.539063 c 0.03838,0.402106 0.148365,0.782226 0.291016,1.152344 -1.341066,0.215124 -2.776274,0.341797 -4.28125,0.341797 -3.74863,0 -7.1364566,-0.731096 -9.4824219,-1.84961 C 3.8870288,40.111691 2.7722353,38.914437 2.5371094,37.828125 h 0.00195 z m 19.0996095,3.832031 c 0.651377,0.52664 1.409105,0.996497 2.248047,1.396485 2.588679,1.234242 6.031991,1.951171 9.824219,1.951171 3.792234,0 7.23163,-0.716929 9.820312,-1.951171 0.833896,-0.397569 1.584501,-0.86401 2.232422,-1.386719 v 3.001953 h 0.01172 c -0.220044,1.016655 -1.261838,2.137813 -3.197266,3.060547 -2.195535,1.046778 -5.358936,1.730469 -8.867187,1.730469 -3.508249,0 -6.679467,-0.683691 -8.875,-1.730469 -1.935435,-0.922734 -2.979172,-2.043892 -3.199219,-3.060547 h 0.002 z"
       style="color:#000000;font-style:normal;font-variant:normal;font-weight:normal;font-stretch:normal;font-size:medium;line-height:normal;font-family:sans-serif;font-variant-ligatures:normal;font-variant-position:normal;font-variant-caps:normal;font-variant-numeric:normal;font-variant-alternates:normal;font-feature-settings:normal;text-indent:0;text-align:start;text-decoration:none;text-decoration-line:none;text-decoration-style:solid;text-decoration-color:#000000;letter-spacing:normal;word-spacing:normal;text-transform:none;writing-mode:lr-tb;direction:ltr;text-orientation:mixed;dominant-baseline:auto;baseline-shift:baseline;text-anchor:start;white-space:normal;shape-padding:0;clip-rule:nonzero;display:inline;overflow:visible;visibility:visible;opacity:1;isolation:auto;mix-blend-mode:normal;color-interpolation:sRGB;color-interpolation-filters:linearRGB;solid-color:#000000;solid-opacity:1;vector-effect:none;fill:#000000;fill-opacity:1;fill-rule:nonzero;stroke:none;stroke-width:2.20423627;stroke-linecap:square;stroke-linejoin:miter;stroke-miterlimit:4;stroke-dasharray:none;stroke-dashoffset:0;stroke-opacity:1;color-rendering:auto;image-rendering:auto;shape-rendering:auto;text-rendering:auto;enable-background:accumulate" />
  </g>
</svg>
