<?xml version="1.0" encoding="UTF-8" standalone="no"?>
<svg
   xmlns:dc="http://purl.org/dc/elements/1.1/"
   xmlns:cc="http://creativecommons.org/ns#"
   xmlns:rdf="http://www.w3.org/1999/02/22-rdf-syntax-ns#"
   xmlns:svg="http://www.w3.org/2000/svg"
   xmlns="http://www.w3.org/2000/svg"
   id="svg2049"
   version="1.1"
   viewBox="0 0 12.7 12.7"
   height="48"
   width="48">
  <defs
     id="defs2043" />
  <metadata
     id="metadata2046">
    <rdf:RDF>
      <cc:Work
         rdf:about="">
        <dc:format>image/svg+xml</dc:format>
        <dc:type
           rdf:resource="http://purl.org/dc/dcmitype/StillImage" />
        <dc:title></dc:title>
      </cc:Work>
    </rdf:RDF>
  </metadata>
  <g
     transform="translate(-12.391555,-283.98571)"
     id="layer1">
    <path
       id="path2614"
       d="m 18.732627,283.98571 c 0,0 -0.638472,1.74685 -0.898701,4.201 0.303018,0.23801 0.605247,0.48446 0.898701,0.73869 0.291678,-0.26405 0.59313,-0.51762 0.89586,-0.761 -0.261683,-2.44498 -0.89586,-4.17869 -0.89586,-4.17869 z m -4.525387,1.82585 c 0,0 1.370156,2.4945 3.20685,4.50637 -1.775476,2.03221 -3.20685,4.50638 -3.20685,4.50638 0,0 2.484614,-1.42567 4.525387,-3.19369 2.020365,1.82898 4.525387,3.19369 4.525387,3.19369 0,0 -1.431691,-2.47417 -3.207166,-4.50638 1.836694,-2.01187 3.207166,-4.50637 3.207166,-4.50637 0,0 -2.505022,1.3644 -4.525387,3.19338 -2.040773,-1.76802 -4.525387,-3.19338 -4.525387,-3.19338 z m 2.376648,3.63188 c -2.443703,0.28734 -4.192333,0.87449 -4.192333,0.87449 0,0 1.736354,0.63579 4.200857,0.89493 0.239013,-0.30175 0.486509,-0.6027 0.741814,-0.89493 -0.25999,-0.28479 -0.510254,-0.57898 -0.750338,-0.87449 z m 4.297162,3.1e-4 c -0.240044,0.29546 -0.490408,0.58947 -0.750339,0.87418 0.255305,0.29223 0.50279,0.59318 0.741815,0.89493 2.464701,-0.25906 4.219029,-0.84159 4.219029,-0.84159 0,0 -1.766626,-0.64024 -4.210505,-0.92752 z m -2.148423,2.2664 c -0.287741,0.24928 -0.583625,0.49142 -0.880708,0.72517 0.287563,2.44244 0.880708,4.25039 0.880708,4.25039 0,0 0.589383,-1.79476 0.877866,-4.22837 -0.296693,-0.23905 -0.591942,-0.48835 -0.877866,-0.74719 z"/>
  </g>
</svg>
