<?xml version="1.0" encoding="UTF-8" standalone="no"?>
<svg
   xmlns:dc="http://purl.org/dc/elements/1.1/"
   xmlns:cc="http://creativecommons.org/ns#"
   xmlns:rdf="http://www.w3.org/1999/02/22-rdf-syntax-ns#"
   xmlns:svg="http://www.w3.org/2000/svg"
   xmlns="http://www.w3.org/2000/svg"
   id="svg1125"
   version="1.1"
   viewBox="0 0 17.53743 17.537432"
   height="66.283203"
   width="66.283203">
  <defs
     id="defs1119" />
  <metadata
     id="metadata1122">
    <rdf:RDF>
      <cc:Work
         rdf:about="">
        <dc:format>image/svg+xml</dc:format>
        <dc:type
           rdf:resource="http://purl.org/dc/dcmitype/StillImage" />
        <dc:title></dc:title>
      </cc:Work>
    </rdf:RDF>
  </metadata>
  <g
     transform="translate(-1.767334,-280.64439)"
     id="layer1">
    <path
       id="rect1727"
       transform="matrix(0.26458333,0,0,0.26458333,0,280.06665)"
       d="M 6.6796875,2.1835938 V 3.328125 68.466797 H 72.962891 V 2.1835938 Z m 13.2968745,2.28125 h 39.691407 v 2.5722656 l 8.445312,8.4453126 h 2.56836 v 39.691406 h -2.56836 l -8.445312,8.445313 v 2.566406 H 19.976562 V 63.619141 L 11.53125,55.173828 H 8.9609375 V 15.482422 H 11.53125 l 8.445312,-8.4453126 z m -2.96875,0.1699218 a 1.3608373,1.3608373 0 0 1 1.361329,1.359375 1.3608373,1.3608373 0 0 1 -1.361329,1.3613282 1.3608373,1.3608373 0 0 1 -1.359374,-1.3613282 1.3608373,1.3608373 0 0 1 1.359374,-1.359375 z m 45.628907,0 a 1.3608373,1.3608373 0 0 1 1.359375,1.359375 1.3608373,1.3608373 0 0 1 -1.359375,1.3613282 1.3608373,1.3608373 0 0 1 -1.361328,-1.3613282 1.3608373,1.3608373 0 0 1 1.361328,-1.359375 z M 10.519531,11.384766 a 1.3608373,1.3608373 0 0 1 1.361328,1.361328 1.3608373,1.3608373 0 0 1 -1.361328,1.361328 1.3608373,1.3608373 0 0 1 -1.3613279,-1.361328 1.3608373,1.3608373 0 0 1 1.3613279,-1.361328 z m 58.605469,0 A 1.3608373,1.3608373 0 0 1 70.486328,12.746094 1.3608373,1.3608373 0 0 1 69.125,14.107422 1.3608373,1.3608373 0 0 1 67.763672,12.746094 1.3608373,1.3608373 0 0 1 69.125,11.384766 Z M 10.519531,56.548828 a 1.3608373,1.3608373 0 0 1 1.361328,1.361328 1.3608373,1.3608373 0 0 1 -1.361328,1.361328 1.3608373,1.3608373 0 0 1 -1.3613279,-1.361328 1.3608373,1.3608373 0 0 1 1.3613279,-1.361328 z m 58.605469,0 A 1.3608373,1.3608373 0 0 1 70.486328,57.910156 1.3608373,1.3608373 0 0 1 69.125,59.271484 1.3608373,1.3608373 0 0 1 67.763672,57.910156 1.3608373,1.3608373 0 0 1 69.125,56.548828 Z m -52.117188,6.751953 a 1.3608373,1.3608373 0 0 1 1.361329,1.361328 1.3608373,1.3608373 0 0 1 -1.361329,1.359375 1.3608373,1.3608373 0 0 1 -1.359374,-1.359375 1.3608373,1.3608373 0 0 1 1.359374,-1.361328 z m 45.628907,0 a 1.3608373,1.3608373 0 0 1 1.359375,1.361328 1.3608373,1.3608373 0 0 1 -1.359375,1.359375 1.3608373,1.3608373 0 0 1 -1.361328,-1.359375 1.3608373,1.3608373 0 0 1 1.361328,-1.361328 z"
       style="color:#000000;font-style:normal;font-variant:normal;font-weight:normal;font-stretch:normal;font-size:medium;line-height:normal;font-family:sans-serif;font-variant-ligatures:normal;font-variant-position:normal;font-variant-caps:normal;font-variant-numeric:normal;font-variant-alternates:normal;font-feature-settings:normal;text-indent:0;text-align:start;text-decoration:none;text-decoration-line:none;text-decoration-style:solid;text-decoration-color:#000000;letter-spacing:normal;word-spacing:normal;text-transform:none;writing-mode:lr-tb;direction:ltr;text-orientation:mixed;dominant-baseline:auto;baseline-shift:baseline;text-anchor:start;white-space:normal;shape-padding:0;clip-rule:nonzero;display:inline;overflow:visible;visibility:visible;opacity:1;isolation:auto;mix-blend-mode:normal;color-interpolation:sRGB;color-interpolation-filters:linearRGB;solid-color:#000000;solid-opacity:1;vector-effect:none;fill:#000000;fill-opacity:1;fill-rule:nonzero;stroke:none;stroke-width:2.28283453;stroke-linecap:square;stroke-linejoin:miter;stroke-miterlimit:4;stroke-dasharray:none;stroke-dashoffset:0;stroke-opacity:1;color-rendering:auto;image-rendering:auto;shape-rendering:auto;text-rendering:auto;enable-background:accumulate" />
  </g>
</svg>
